<?xml version="1.0" encoding="utf-8"?>
<!-- Generator: Adobe Illustrator 26.5.0, SVG Export Plug-In . SVG Version: 6.00 Build 0)  -->
<svg version="1.1" id="Layer_1" xmlns="http://www.w3.org/2000/svg" xmlns:xlink="http://www.w3.org/1999/xlink" x="0px" y="0px"
	 viewBox="0 0 1215.5 444.1" style="enable-background:new 0 0 1215.5 444.1;" xml:space="preserve">
<style type="text/css">
	.st0{fill:#95ADCF;}
</style>
<g>
	<path class="st0" d="M1056.3,123.2c-16.1,0-31.6,2.4-46.2,6.9v26.3c0,15.8,14.3,27.5,29.9,25c5.3-0.9,10.7-1.3,16.3-1.3
		c56.7,0,102.7,46.3,102.7,103.5s-46,103.5-102.7,103.5c-56.3,0-102-45.7-102.6-102.2l0-123.8V25.7C953.7,11.5,942.2,0,928,0h-30.8
		v283.7c0,2.9,0.1,5.8,0.2,8.7c0,0.9,0.1,1.9,0.2,2.8c0.1,2,0.3,3.9,0.5,5.8c0.1,1.1,0.3,2.1,0.4,3.2c0.2,1.8,0.5,3.6,0.7,5.3
		c0.2,1.1,0.4,2.2,0.6,3.3c0.3,1.7,0.6,3.4,1,5.2c0.2,1.1,0.5,2.1,0.7,3.2c0.4,1.7,0.9,3.5,1.3,5.2c0.3,1,0.5,2,0.8,2.9
		c0.5,1.8,1.1,3.6,1.7,5.3c0.3,0.9,0.6,1.7,0.9,2.6c0.7,1.9,1.4,3.8,2.2,5.7c0.3,0.7,0.5,1.3,0.8,2c1,2.3,2,4.6,3,6.9
		c0.1,0.2,0.2,0.4,0.3,0.6c3.6,7.7,7.9,15.1,12.7,22.1c0.1,0.1,0.2,0.2,0.2,0.4c1.5,2.2,3,4.3,4.6,6.4c0.2,0.2,0.4,0.5,0.6,0.7
		c1.5,2,3.1,3.9,4.7,5.8c0.2,0.3,0.5,0.6,0.7,0.8c1.6,1.9,3.3,3.8,5.1,5.6c0.2,0.2,0.3,0.3,0.5,0.5c1.8,1.8,3.6,3.6,5.4,5.4
		c0.2,0.2,0.3,0.3,0.5,0.5c2,1.9,4,3.7,6.1,5.5c0,0,0,0,0,0c27.7,23.6,63.5,37.9,102.7,37.9c87.9,0,159.2-71.8,159.2-160.4
		C1215.5,195.1,1144.2,123.2,1056.3,123.2z"/>
	<g>
		<path class="st0" d="M412,284.9l0-123.8V25.7C412,11.5,400.5,0,386.3,0h-30.8v283.7c0,2.9,0.1,5.8,0.2,8.7c0,0.9,0.1,1.9,0.2,2.8
			c0.1,2,0.3,3.9,0.5,5.8c0.1,1.1,0.3,2.1,0.4,3.2c0.2,1.8,0.5,3.6,0.7,5.3c0.2,1.1,0.4,2.2,0.6,3.3c0.3,1.7,0.6,3.4,1,5.2
			c0.2,1.1,0.5,2.1,0.7,3.2c0.4,1.7,0.9,3.5,1.3,5.2c0.3,1,0.5,2,0.8,2.9c0.5,1.8,1.1,3.6,1.7,5.3c0.3,0.9,0.6,1.7,0.9,2.6
			c0.7,1.9,1.4,3.8,2.2,5.7c0.3,0.7,0.5,1.3,0.8,2c1,2.3,2,4.6,3,6.9c0.1,0.2,0.2,0.4,0.3,0.6c3.6,7.7,7.9,15.1,12.7,22.1
			c0.1,0.1,0.2,0.2,0.2,0.4c1.5,2.2,3,4.3,4.6,6.4c0.2,0.2,0.4,0.5,0.6,0.7c1.5,2,3.1,3.9,4.7,5.8c0.2,0.3,0.5,0.6,0.7,0.8
			c1.6,1.9,3.4,3.8,5.1,5.6c0.2,0.2,0.3,0.3,0.5,0.5c1.8,1.8,3.6,3.6,5.4,5.4c0.2,0.2,0.3,0.3,0.5,0.5c2,1.9,4,3.7,6.1,5.5
			c0,0,0,0,0,0c27.7,23.6,63.5,37.9,102.7,37.9v-34.3c0-12.1-8.7-22.2-20.5-24.7C447.7,375.6,412.6,334.4,412,284.9z"/>
	</g>
	<path class="st0" d="M738,267h-51.3c-14.2,0-25.7,11.5-25.7,25.7v30.8h77c28.3,0,53.9-12.4,71.6-32.1
		c15.3-17.1,24.7-39.6,24.7-64.2v0c0-31.2-15.1-59.1-38.3-76.7c-7-5.3-14.8-9.7-23.2-13c-20-9.2-42.2-14.3-65.6-14.3
		c-17,0-33.4,2.7-48.8,7.7c-63.3,20.5-109.3,79.9-110.3,150.3c0,0.8-0.1,1.6-0.1,2.4c0,88.6,71.3,160.4,159.2,160.4
		c44.9,0,85.4-18.7,114.3-48.9l-23.4-23.4c-8.7-8.7-22.5-10.1-32.6-3.1c-16.6,11.6-36.7,18.4-58.4,18.4c-43.2,0-80.2-26.9-95.3-65
		c-4.7-11.9-7.4-24.9-7.4-38.5c0-7.7,0.9-15.3,2.5-22.5c7.4-33.7,31.2-61.2,62.5-73.7c11.7-4.7,24.4-7.2,37.7-7.2
		c14.6,0,28.5,3.1,41.1,8.7c5.9,2.6,11.6,5.8,16.8,9.4c7.8,7.3,12.6,17.6,12.6,29v0C777.8,249.1,759.9,267,738,267z"/>
	<path class="st0" d="M129.6,123.3c-0.9,0-1.7-0.1-2.6-0.1h-114v31.3c0,14.2,11.5,25.7,25.7,25.7h85.3c1,0,2-0.1,3-0.1
		c0.9,0,1.7,0,2.6,0c42.1,1,77.9,27.6,92.8,65c4.7,11.9,7.4,24.9,7.4,38.5c0,7.7-0.9,15.3-2.5,22.5c-7.4,33.7-31.2,61.2-62.5,73.7
		c-11.7,4.7-24.4,7.2-37.7,7.2c-14.6,0-28.5-3.1-41.1-8.7c-5.9-2.6-11.6-5.8-16.8-9.4c-7.8-7.3-12.6-17.6-12.6-29v-0.7
		c0-21.5,17.6-39.1,39.1-39.1h52.8c13.8,0,24.9-11.2,24.9-24.9v-31.5h-77c-28.3,0-53.9,12.4-71.6,32.1C9.4,293,0,315.5,0,340.1v0
		c0,31.2,15.1,59.1,38.3,76.7c7,5.3,14.8,9.7,23.2,13c20,9.2,42.2,14.3,65.6,14.3c17,0,33.4-2.7,48.8-7.7
		c63.3-20.5,109.3-79.9,110.3-150.3c0-0.8,0.1-1.6,0.1-2.4C286.2,195.9,216.3,124.7,129.6,123.3z"/>
</g>
</svg>
