<?xml version="1.0" standalone="no"?>
<!DOCTYPE svg PUBLIC "-//W3C//DTD SVG 20010904//EN"
 "http://www.w3.org/TR/2001/REC-SVG-20010904/DTD/svg10.dtd">
<svg version="1.0" xmlns="http://www.w3.org/2000/svg"
 width="2432.000000pt" height="2432.000000pt" viewBox="0 0 2432.000000 2432.000000"
 preserveAspectRatio="xMidYMid meet">
<metadata>
Created by potrace 1.14, written by Peter Selinger 2001-2017
</metadata>
<g transform="translate(0.000000,2432.000000) scale(0.100000,-0.100000)"
fill="#000000" stroke="none">
<path d="M7118 16545 c-1 -31 1 -57 7 -59 6 -3 5 -5 -2 -5 -8 -1 -9 -10 -5
-28 4 -16 6 -41 5 -58 -6 -69 -5 -144 2 -156 6 -8 4 -10 -5 -4 -8 5 -11 4 -7
-2 7 -10 8 -63 6 -159 -1 -29 1 -57 5 -63 4 -6 3 -11 -3 -11 -6 0 -7 -11 -3
-27 4 -16 6 -41 5 -58 -6 -69 -5 -144 2 -156 6 -8 4 -10 -5 -4 -8 5 -11 4 -7
-2 7 -10 8 -63 6 -159 -1 -29 1 -57 5 -63 4 -6 3 -11 -3 -11 -6 0 -7 -11 -3
-27 4 -16 6 -41 5 -58 -6 -64 -5 -133 1 -143 3 -6 2 -13 -3 -17 -6 -3 -7 -15
-2 -28 4 -12 4 -35 1 -52 -3 -16 -3 -40 1 -52 5 -12 4 -25 -1 -28 -5 -3 -6
-16 -1 -28 4 -12 4 -35 1 -52 -3 -16 -3 -40 1 -52 5 -12 4 -25 -1 -28 -5 -3
-6 -16 -1 -28 4 -12 4 -35 1 -52 -3 -16 -3 -40 1 -52 5 -12 4 -25 -1 -28 -5
-3 -6 -16 -2 -28 4 -12 6 -35 5 -52 -6 -69 -5 -133 1 -144 4 -6 3 -11 -3 -11
-6 0 -7 -11 -3 -27 4 -16 6 -41 5 -58 -6 -69 -5 -144 2 -156 6 -8 4 -10 -5 -4
-8 5 -11 4 -7 -2 7 -10 8 -63 6 -159 -1 -29 1 -57 5 -63 4 -6 3 -11 -3 -11 -6
0 -7 -11 -3 -27 4 -16 6 -41 5 -58 -6 -69 -5 -144 2 -156 6 -8 4 -10 -5 -4 -8
5 -11 4 -7 -2 7 -10 8 -63 6 -159 -1 -29 1 -57 5 -63 4 -6 3 -11 -3 -11 -6 0
-7 -11 -3 -27 4 -16 6 -41 5 -58 -6 -64 -5 -133 1 -143 3 -6 2 -13 -3 -17 -6
-3 -7 -15 -2 -28 4 -12 4 -35 1 -52 -3 -16 -3 -40 1 -52 5 -12 4 -25 -1 -28
-5 -3 -6 -16 -1 -28 4 -12 4 -35 1 -52 -3 -16 -3 -40 1 -52 5 -12 4 -25 -1
-28 -5 -3 -6 -16 -1 -28 4 -12 4 -35 1 -52 -3 -16 -3 -40 1 -52 5 -12 4 -25
-1 -28 -5 -3 -6 -16 -2 -28 4 -12 6 -35 5 -52 -6 -69 -5 -133 1 -144 4 -6 3
-11 -3 -11 -6 0 -7 -11 -3 -27 4 -16 6 -41 5 -58 -6 -69 -5 -144 2 -156 6 -8
4 -10 -5 -4 -8 5 -11 4 -7 -2 7 -10 8 -63 6 -159 -1 -29 1 -57 5 -63 4 -6 3
-11 -3 -11 -6 0 -7 -11 -3 -27 4 -16 6 -41 5 -58 -6 -69 -5 -144 2 -156 6 -8
4 -10 -5 -4 -8 5 -11 4 -7 -2 7 -10 8 -63 6 -159 -1 -29 1 -57 5 -63 4 -6 3
-11 -3 -11 -6 0 -7 -11 -3 -27 4 -16 6 -41 5 -58 -3 -36 -5 -150 -4 -220 1
-27 1 -73 0 -101 -1 -29 1 -57 5 -63 4 -6 3 -11 -3 -11 -6 0 -7 -11 -3 -27 4
-16 6 -41 5 -58 -6 -64 -5 -144 1 -153 3 -6 2 -13 -4 -17 -6 -4 -8 -10 -5 -15
3 -5 8 -73 10 -152 3 -79 8 -156 10 -173 3 -16 7 -55 10 -85 3 -30 8 -64 9
-75 2 -11 7 -36 10 -55 8 -48 15 -85 21 -117 10 -46 46 -207 50 -221 3 -7 5
-16 6 -20 1 -4 10 -32 21 -62 11 -30 21 -62 23 -70 8 -31 32 -90 38 -96 4 -4
7 -13 7 -19 0 -7 8 -30 17 -51 9 -22 17 -41 18 -44 16 -52 145 -308 204 -405
56 -92 199 -306 210 -315 4 -3 37 -43 75 -90 97 -120 342 -360 466 -458 58
-46 113 -90 123 -98 9 -8 22 -14 27 -14 6 0 10 -4 10 -10 0 -5 5 -10 11 -10 6
0 17 -6 24 -13 30 -26 44 -37 49 -37 3 0 30 -15 59 -34 97 -62 141 -86 287
-157 80 -39 159 -76 175 -84 94 -43 379 -137 455 -151 8 -1 29 -5 45 -9 17 -4
37 -8 45 -10 8 -2 16 -4 18 -5 1 -2 10 -3 20 -5 9 -1 35 -5 57 -10 71 -14 79
-15 125 -21 25 -3 56 -8 70 -10 51 -7 218 -17 299 -18 l84 -1 0 366 c-1 202
-4 379 -7 395 -4 16 -8 39 -10 50 -8 40 -59 138 -95 182 -74 92 -197 166 -313
188 -45 8 -103 22 -103 24 0 1 -7 3 -15 5 -8 2 -24 6 -35 9 -155 38 -482 196
-605 292 -176 139 -302 255 -383 356 -21 26 -43 53 -50 60 -18 19 -129 185
-161 242 -65 113 -163 332 -181 406 -2 8 -14 58 -28 110 -14 52 -27 111 -30
130 -3 19 -8 44 -10 55 -7 31 -19 142 -23 215 -2 36 -3 1253 -4 2705 0 2266
-2 2647 -15 2688 -8 26 -12 47 -10 47 8 0 -57 116 -87 155 -40 52 -121 117
-178 144 -98 45 -137 49 -497 50 l-341 1 -4 -55z"/>
<path d="M17956 13653 c1 -1621 5 -2968 7 -2993 18 -162 25 -215 38 -283 5
-26 8 -51 7 -55 -1 -4 1 -14 5 -22 5 -14 18 -77 23 -110 1 -8 12 -49 23 -90
12 -41 24 -84 27 -96 2 -12 11 -41 20 -65 8 -24 17 -51 19 -59 7 -31 134 -333
155 -370 5 -8 24 -44 42 -80 18 -36 53 -99 78 -140 26 -41 53 -86 61 -99 8
-14 21 -33 30 -43 9 -10 22 -31 30 -46 16 -30 26 -44 52 -73 9 -10 17 -22 17
-25 0 -3 28 -40 62 -82 166 -204 410 -439 598 -575 36 -26 72 -54 81 -62 9 -8
20 -15 25 -15 6 0 19 -8 30 -17 11 -10 31 -24 45 -32 13 -8 51 -31 84 -51 33
-20 89 -52 125 -71 36 -19 67 -37 68 -41 2 -5 10 -8 17 -8 8 0 45 -15 82 -34
106 -54 363 -152 363 -139 0 3 6 1 13 -5 14 -12 86 -33 154 -46 7 -1 15 -5 19
-8 3 -4 12 -4 20 -1 8 3 14 0 14 -6 0 -6 3 -10 8 -9 6 2 95 -12 117 -18 31 -9
97 -20 177 -29 21 -3 50 -7 65 -10 99 -19 480 -26 643 -12 41 3 75 6 75 7 0 1
14 3 30 4 62 7 132 17 180 26 28 6 64 12 80 14 17 2 37 6 45 9 8 3 40 11 70
17 30 6 62 14 70 17 8 3 20 7 27 9 7 1 45 12 85 25 40 13 78 24 83 25 24 5
177 65 241 94 38 17 74 33 79 34 11 2 102 49 180 91 28 15 64 35 80 43 17 8
32 18 35 21 9 10 44 31 63 37 9 4 17 11 17 16 0 5 4 7 9 4 5 -4 11 -3 13 2 1
4 41 34 88 66 47 33 88 64 92 70 4 6 8 7 8 2 0 -6 6 -3 13 5 6 8 44 41 82 72
124 100 218 188 325 307 41 45 82 90 90 99 63 68 255 338 306 430 11 18 24 41
29 50 21 32 45 81 44 87 0 4 4 10 9 13 8 5 21 31 97 196 13 28 33 75 45 105
11 30 25 64 30 75 9 21 69 208 75 235 2 8 8 26 13 40 5 14 10 28 11 33 0 4 1
8 2 10 0 1 2 10 4 20 2 11 13 62 24 115 20 97 40 211 46 267 17 148 20 219 20
410 -1 121 -4 249 -8 285 -12 98 -16 132 -21 170 -2 19 -7 53 -10 75 -3 22
-12 71 -21 108 -8 37 -13 72 -10 77 3 5 1 11 -4 14 -5 3 -12 23 -16 43 -4 21
-12 56 -19 78 -7 22 -19 60 -26 85 -7 25 -16 54 -20 65 -4 11 -25 67 -46 125
-78 216 -182 421 -319 630 -98 149 -146 212 -273 362 -125 147 -346 348 -526
480 -28 21 -57 42 -63 48 -7 6 -13 8 -13 5 0 -2 -9 3 -20 13 -57 49 -348 209
-505 277 -16 7 -50 22 -75 33 -25 10 -63 25 -85 32 -22 7 -46 17 -52 23 -7 5
-13 7 -13 3 0 -3 -17 1 -37 10 -21 8 -47 17 -57 20 -11 2 -40 10 -65 18 -25 9
-57 18 -71 21 -14 2 -65 14 -115 25 -49 11 -106 23 -125 25 -19 3 -46 8 -60
11 -14 3 -43 7 -65 10 -22 2 -56 7 -75 9 -176 24 -648 25 -722 1 -7 -3 -42 -8
-78 -12 -36 -4 -76 -8 -90 -10 -14 -1 -25 -3 -25 -4 0 -2 -36 -10 -75 -16 -19
-2 -62 -12 -95 -20 -33 -9 -69 -18 -80 -21 -23 -5 -26 -6 -82 -22 l-42 -11 3
-308 c3 -266 6 -325 16 -352 1 -3 2 -8 1 -12 0 -4 16 -40 36 -80 51 -100 142
-189 238 -232 73 -33 148 -49 224 -47 63 1 126 7 126 11 0 13 431 18 510 6 22
-3 60 -8 83 -11 24 -4 54 -9 65 -11 12 -3 36 -7 52 -10 17 -3 48 -10 70 -16
22 -7 42 -12 45 -12 3 -1 11 -5 18 -9 6 -5 12 -6 12 -3 0 6 125 -36 177 -60
17 -8 34 -14 37 -14 25 0 327 -164 334 -182 2 -4 8 -8 14 -8 38 0 338 -267
426 -379 15 -19 36 -44 47 -56 11 -11 25 -28 30 -37 6 -9 38 -57 73 -107 34
-50 59 -91 55 -91 -3 0 1 -8 9 -17 19 -22 119 -223 111 -223 -3 0 0 -6 6 -14
13 -15 96 -262 104 -311 10 -51 18 -89 22 -105 2 -8 7 -37 10 -65 4 -27 10
-77 15 -110 9 -65 6 -363 -5 -459 -6 -55 -15 -105 -29 -166 -4 -14 -9 -41 -12
-60 -3 -19 -10 -43 -15 -52 -5 -10 -7 -18 -5 -18 3 0 1 -12 -5 -27 -6 -16 -12
-36 -15 -46 -9 -46 -73 -202 -126 -308 -49 -99 -166 -292 -187 -309 -3 -3 -22
-25 -40 -50 -67 -86 -207 -231 -291 -300 -30 -25 -61 -50 -68 -57 -7 -7 -26
-20 -42 -30 -17 -9 -30 -21 -30 -25 0 -4 -6 -8 -13 -8 -7 0 -25 -10 -40 -23
-65 -52 -370 -207 -409 -207 -8 0 -18 -4 -23 -8 -6 -5 -28 -14 -50 -20 -22 -6
-51 -15 -65 -19 -14 -4 -28 -8 -32 -9 -5 -1 -9 -2 -10 -4 -4 -2 -24 -7 -63
-15 -16 -3 -67 -14 -112 -24 -46 -10 -83 -14 -83 -9 0 5 -6 6 -12 1 -18 -10
-31 -12 -128 -17 -47 -3 -87 -6 -90 -7 -3 -1 -9 -1 -13 0 -5 1 -56 3 -115 6
-114 4 -191 11 -232 20 -14 3 -38 7 -55 10 -36 5 -71 12 -93 19 -9 3 -28 7
-42 10 -14 2 -56 15 -95 27 -38 12 -74 24 -80 25 -11 2 -61 23 -140 57 -73 32
-234 116 -245 128 -3 3 -23 16 -45 29 -22 13 -52 33 -66 44 -15 12 -39 30 -55
41 -80 56 -230 197 -317 297 -91 104 -247 335 -247 365 0 7 -4 13 -8 13 -8 0
-47 80 -90 180 -27 64 -81 220 -76 220 3 0 0 9 -5 19 -6 10 -13 35 -15 55 -2
19 -8 41 -12 47 -4 7 -8 26 -9 43 -2 17 -4 31 -5 31 -3 0 -9 36 -15 95 -4 30
-9 69 -12 85 -3 17 -6 1243 -8 2725 -1 1482 -5 2711 -9 2730 -13 61 -18 74
-50 139 -58 121 -177 219 -317 261 -52 16 -104 18 -407 20 l-348 1 2 -2948z"/>
<path d="M270 13789 c1 -306 3 -355 19 -412 10 -35 25 -75 32 -88 7 -13 13
-26 14 -29 1 -11 61 -87 95 -119 59 -56 114 -89 196 -117 l79 -27 1035 -2
c761 -1 1042 -5 1063 -13 21 -9 26 -9 21 0 -4 6 -3 8 3 5 6 -4 28 -9 49 -12
22 -3 46 -9 54 -12 8 -3 26 -7 40 -9 31 -4 53 -9 110 -25 25 -7 48 -13 53 -15
4 -1 8 -2 10 -3 1 -2 12 -4 23 -6 12 -3 34 -10 50 -16 16 -7 32 -13 37 -14 4
-2 9 -4 12 -5 3 -1 8 -3 13 -5 24 -7 60 -23 172 -77 157 -77 341 -198 445
-293 98 -90 142 -135 137 -140 -3 -3 0 -5 6 -5 17 0 147 -162 225 -280 90
-136 185 -333 236 -490 23 -69 43 -136 46 -150 3 -14 7 -36 10 -50 9 -40 15
-69 19 -87 4 -19 13 -86 23 -168 7 -67 8 -305 0 -380 -7 -76 -24 -179 -43
-270 -4 -22 -9 -44 -9 -50 -1 -5 -10 -37 -20 -70 -11 -33 -19 -63 -19 -67 -1
-3 -4 -10 -8 -14 -5 -4 -8 -14 -8 -22 0 -19 -100 -255 -111 -262 -4 -3 -11
-18 -14 -33 -4 -15 -10 -27 -14 -27 -3 0 -22 -29 -41 -65 -19 -36 -38 -65 -42
-65 -5 0 -8 -6 -8 -12 0 -7 -9 -24 -20 -38 -11 -14 -47 -61 -81 -105 -87 -112
-258 -281 -364 -360 -22 -16 -41 -33 -43 -37 -2 -4 -10 -8 -17 -8 -7 0 -15 -4
-17 -8 -9 -22 -286 -175 -403 -223 -105 -43 -304 -100 -402 -115 -21 -3 -49
-7 -63 -10 -46 -9 -104 -14 -203 -19 -53 -2 -102 -7 -107 -10 -6 -3 -10 -2
-10 2 0 5 -28 9 -62 9 -68 0 -186 10 -209 18 -8 3 -33 7 -57 10 -91 12 -312
73 -397 110 -125 55 -209 96 -263 128 -34 21 -67 38 -72 38 -6 0 -10 4 -10 9
0 5 -9 12 -20 16 -22 7 -107 87 -133 125 -58 84 -74 113 -102 180 -18 41 -36
93 -40 115 -5 22 -10 47 -12 55 -7 29 -7 235 0 279 8 49 51 180 75 226 8 17
26 44 38 61 13 17 24 34 24 39 0 4 30 39 68 77 68 72 136 122 228 169 44 22
63 30 117 44 4 2 8 3 10 5 1 1 9 3 17 5 8 2 26 7 40 11 14 4 286 9 605 10 524
2 680 6 725 17 126 31 268 146 323 260 50 103 55 154 53 518 l-1 334 -840 1
c-462 1 -844 -1 -849 -4 -4 -2 -33 -6 -63 -8 -29 -2 -62 -5 -71 -8 -9 -3 -37
-8 -62 -12 -55 -8 -60 -9 -85 -17 -11 -3 -32 -8 -46 -11 -66 -11 -393 -136
-409 -156 -3 -4 -30 -20 -60 -36 -30 -16 -56 -32 -58 -36 -2 -5 -8 -8 -13 -8
-10 0 -171 -116 -223 -160 -54 -46 -201 -194 -236 -239 -19 -24 -42 -52 -50
-61 -8 -9 -19 -24 -25 -33 -5 -9 -31 -47 -57 -85 -155 -227 -260 -510 -303
-817 -11 -83 -15 -432 -5 -455 3 -7 5 -17 14 -85 8 -58 50 -234 63 -265 3 -8
7 -21 9 -28 5 -26 86 -218 114 -272 16 -30 34 -67 41 -82 6 -16 15 -28 20 -28
5 0 9 -4 9 -10 0 -15 51 -90 140 -204 76 -100 263 -284 331 -328 14 -9 32 -23
40 -30 43 -43 347 -213 394 -221 6 -1 13 -6 16 -10 3 -5 12 -9 20 -11 8 -1 35
-12 61 -24 26 -12 51 -22 56 -22 4 0 26 -9 48 -19 68 -33 326 -115 427 -135 7
-2 23 -6 37 -9 14 -4 39 -9 55 -12 17 -3 55 -10 85 -16 188 -34 305 -44 555
-43 218 0 358 9 470 30 10 2 35 6 55 9 20 3 47 8 60 10 14 3 37 7 52 10 51 10
200 46 224 55 14 6 35 12 47 14 34 7 256 86 317 114 161 72 211 97 270 130 36
19 67 35 69 33 2 -1 7 1 10 6 9 12 111 73 122 73 5 0 9 4 9 8 0 5 11 14 25 20
14 7 31 17 38 22 7 6 50 38 97 71 47 34 90 67 96 75 6 8 16 14 22 14 6 0 15 6
19 13 4 6 37 37 73 67 76 64 268 255 325 325 22 27 45 53 50 59 10 10 72 91
132 172 44 59 113 166 113 175 0 5 4 9 8 9 4 0 13 12 20 28 6 15 20 41 30 57
40 65 81 145 74 145 -4 0 -2 4 4 8 6 4 22 30 34 57 12 28 36 78 51 113 16 34
29 69 29 77 0 8 5 15 10 15 6 0 9 3 9 8 -1 4 0 9 1 12 1 3 3 12 5 20 2 8 17
50 33 93 17 42 28 77 26 77 -2 0 1 12 7 28 12 29 58 201 66 242 2 14 9 45 14
70 6 25 13 63 15 85 3 22 7 47 10 55 3 8 7 37 10 65 3 27 7 66 10 85 16 128
22 443 11 585 -13 153 -14 168 -33 280 -16 104 -48 244 -74 335 -17 58 -32
112 -34 120 -11 43 -70 201 -105 283 -50 118 -156 333 -171 347 -7 7 -29 42
-37 60 -26 61 -243 358 -339 465 -143 160 -442 435 -473 435 -6 0 -11 4 -11 8
0 4 -18 19 -40 32 -22 14 -40 28 -40 33 0 4 -6 7 -14 7 -8 0 -16 3 -18 8 -5
11 -66 52 -78 52 -5 0 -10 3 -10 8 0 4 -21 18 -47 32 -27 13 -50 28 -53 31 -8
11 -245 132 -320 164 -36 15 -78 33 -95 40 -16 8 -48 20 -70 28 -22 8 -49 18
-60 23 -11 4 -25 8 -31 9 -7 2 -40 12 -75 24 -88 29 -120 39 -149 46 -14 2
-77 16 -140 30 -63 14 -131 27 -150 30 -19 2 -51 7 -70 10 -19 3 -60 8 -90 11
-30 2 -75 7 -100 11 -25 3 -604 6 -1288 8 l-1242 2 0 -348z"/>
<path d="M14017 14135 c-1 -1 -45 -5 -97 -9 -52 -4 -108 -8 -125 -10 -70 -8
-140 -18 -159 -22 -12 -3 -38 -7 -58 -8 -20 -2 -41 -6 -46 -10 -5 -3 -23 -8
-40 -11 -78 -13 -260 -62 -332 -89 -25 -9 -52 -19 -60 -21 -8 -2 -15 -4 -15
-5 0 -1 -8 -3 -17 -5 -9 -2 -43 -15 -74 -29 -31 -14 -60 -26 -65 -26 -14 0
-284 -134 -287 -142 -2 -5 -12 -8 -23 -8 -10 0 -19 -4 -19 -9 0 -5 -12 -14
-27 -20 -33 -14 -57 -28 -100 -58 -17 -13 -36 -23 -42 -23 -6 0 -11 -4 -11
-10 0 -5 -4 -10 -9 -10 -17 0 -262 -185 -351 -265 -116 -104 -332 -331 -380
-399 -8 -12 -24 -31 -35 -42 -11 -12 -47 -61 -80 -109 -33 -48 -64 -93 -70
-99 -5 -6 -19 -29 -30 -50 -11 -22 -29 -51 -40 -65 -11 -13 -20 -31 -22 -39
-1 -8 -5 -18 -10 -21 -5 -3 -19 -28 -33 -56 -14 -27 -28 -51 -32 -53 -5 -2 -8
-7 -8 -12 0 -4 -22 -54 -48 -111 -51 -109 -63 -137 -67 -154 -2 -5 -13 -35
-25 -65 -22 -55 -78 -219 -86 -252 -2 -10 -6 -26 -9 -35 -10 -40 -37 -149 -41
-168 -10 -51 -14 -72 -19 -100 -3 -16 -7 -41 -10 -54 -2 -14 -7 -45 -10 -70
-3 -25 -7 -57 -10 -71 -19 -99 -27 -551 -12 -690 5 -41 11 -93 13 -115 2 -22
9 -65 14 -95 6 -30 12 -68 15 -85 7 -52 43 -210 52 -235 3 -8 8 -23 10 -34 8
-42 88 -277 125 -366 40 -96 131 -281 174 -355 13 -22 27 -47 31 -55 3 -8 14
-26 23 -40 10 -14 39 -59 66 -100 40 -62 84 -123 186 -255 88 -114 465 -485
493 -485 3 0 16 -9 28 -21 67 -63 306 -218 462 -299 55 -29 105 -55 110 -58
13 -9 99 -45 210 -88 50 -20 99 -40 110 -44 27 -12 100 -34 100 -31 0 2 18 -4
40 -12 85 -33 362 -94 460 -102 22 -2 40 -4 40 -5 0 -3 39 -7 145 -16 122 -11
419 -10 535 0 163 15 208 21 288 37 29 6 63 13 77 15 61 12 232 55 272 69 25
8 53 16 64 18 10 2 28 8 39 14 11 6 45 18 75 28 51 16 97 35 175 70 17 7 33
14 37 14 15 2 283 144 289 153 3 5 8 8 11 6 7 -4 304 192 318 210 3 4 23 20
45 37 21 16 46 36 55 45 9 8 36 31 60 51 25 20 82 73 128 117 l83 82 -250 249
c-138 137 -272 264 -298 282 -57 40 -190 86 -238 84 -19 -1 -35 2 -35 7 0 5
-5 6 -11 3 -6 -4 -27 -8 -47 -10 -60 -5 -97 -14 -138 -32 -21 -9 -42 -16 -46
-15 -3 1 -12 -5 -18 -13 -7 -8 -18 -15 -25 -15 -8 0 -15 -4 -17 -8 -6 -16
-186 -122 -288 -170 -137 -64 -302 -124 -385 -139 -11 -2 -38 -9 -60 -15 -22
-5 -55 -12 -73 -14 -18 -2 -41 -5 -50 -8 -40 -12 -168 -20 -312 -20 -176 1
-269 9 -385 34 -27 6 -61 12 -75 14 -14 2 -27 5 -30 7 -3 1 -9 3 -15 4 -5 1
-50 14 -100 30 -49 16 -96 30 -104 31 -8 1 -17 6 -20 11 -3 4 -13 9 -21 11
-31 6 -276 126 -301 148 -8 8 -19 14 -23 14 -8 0 -92 57 -114 78 -7 6 -17 12
-20 12 -4 0 -18 10 -32 23 -14 12 -48 40 -75 62 -51 41 -191 179 -234 230 -63
75 -151 194 -151 204 0 6 -4 11 -10 11 -5 0 -10 7 -10 15 0 8 -4 15 -9 15 -5
0 -12 11 -15 25 -4 14 -11 25 -16 25 -6 0 -10 5 -10 11 0 6 -9 24 -21 40 -11
16 -17 29 -12 29 4 0 3 4 -2 8 -10 6 -74 134 -80 157 -4 18 -16 50 -29 75 -12
22 -28 75 -25 82 0 2 -6 16 -15 32 -8 16 -13 33 -10 38 3 4 0 8 -6 8 -6 0 -9
4 -6 9 3 5 -2 33 -10 62 -9 30 -18 65 -20 79 -3 14 -7 36 -9 50 -12 57 -14 72
-20 132 -4 35 -9 77 -11 93 -4 37 -4 279 1 320 2 17 6 55 9 85 3 30 6 55 6 55
2 0 7 28 13 72 26 179 145 504 244 661 18 29 33 56 33 61 0 4 9 16 20 26 11
10 20 24 20 32 0 7 5 13 10 13 6 0 10 5 10 10 0 32 244 307 351 395 116 96
208 160 324 227 68 39 230 118 240 118 2 0 16 5 32 12 15 6 30 12 33 13 21 5
58 18 75 25 46 19 197 55 310 75 174 29 600 23 695 -12 8 -3 29 -7 45 -10 87
-14 339 -94 360 -114 5 -5 17 -9 27 -9 10 0 18 -5 18 -12 0 -6 3 -8 6 -5 7 7
187 -83 192 -95 2 -5 8 -8 13 -8 5 0 32 -16 59 -35 28 -19 50 -33 50 -30 0 9
98 -102 116 -132 10 -15 26 -37 35 -48 10 -11 18 -23 18 -27 1 -5 12 -33 26
-64 43 -98 65 -202 65 -314 1 -66 -10 -158 -20 -186 -5 -13 -8 -24 -5 -24 6 0
-41 -123 -62 -162 -86 -159 -227 -290 -388 -360 -53 -24 -79 -32 -175 -55 -14
-3 -67 -6 -117 -7 -51 0 -93 -5 -93 -9 0 -5 -5 -5 -11 -2 -16 11 -69 12 -69 2
0 -4 -5 -5 -11 -2 -16 11 -69 12 -69 2 0 -4 -5 -5 -11 -2 -16 11 -69 12 -69 2
0 -4 -5 -5 -11 -2 -8 6 -754 10 -754 5 0 -1 -13 -4 -30 -6 -53 -8 -128 -35
-182 -65 -58 -33 -148 -119 -158 -150 -4 -10 -10 -19 -15 -19 -11 0 -62 -122
-63 -154 -1 -14 -5 -26 -9 -26 -3 0 -7 -160 -8 -356 l-1 -355 863 4 c788 4
911 7 988 23 14 3 39 7 55 10 138 24 361 101 500 173 124 65 245 140 245 153
0 6 3 8 6 5 4 -4 21 6 39 21 18 15 52 43 76 62 71 57 220 211 279 289 30 40
61 78 68 86 6 7 12 18 12 24 0 6 5 11 10 11 6 0 10 6 10 13 0 7 9 23 20 35 12
12 18 22 14 22 -4 0 0 8 8 18 15 17 76 132 117 222 46 100 110 314 127 420 2
14 6 40 9 57 33 195 21 521 -25 691 -4 17 -6 32 -4 32 3 0 0 8 -5 18 -5 9 -12
31 -15 47 -12 66 -70 217 -133 345 -37 74 -70 137 -73 140 -3 3 -20 28 -38 55
-17 28 -35 55 -40 60 -4 6 -19 26 -32 45 -14 19 -32 42 -40 51 -35 38 -80 90
-80 93 0 2 -25 28 -55 58 -30 30 -55 54 -55 52 0 -1 -15 12 -33 29 -44 42 -74
67 -117 97 -19 13 -44 32 -54 42 -11 10 -26 18 -33 18 -7 0 -13 4 -13 8 0 14
-251 152 -276 152 -8 0 -14 5 -14 10 0 6 -8 10 -18 10 -10 0 -28 7 -40 16 -12
8 -22 12 -22 9 0 -4 -17 3 -37 15 -21 12 -45 24 -55 25 -9 2 -32 10 -50 18
-42 19 -118 48 -138 53 -8 2 -42 13 -75 24 -33 12 -67 23 -75 25 -8 2 -60 14
-115 28 -55 14 -113 28 -130 31 -16 3 -41 7 -55 10 -13 3 -42 8 -65 11 -22 3
-51 8 -65 10 -27 5 -92 12 -180 21 -53 5 -397 13 -403 9z"/>
</g>
</svg>
